#!OML:ASF F:\VICON\USERDATA\INSTALL\rory3\rory3.ASF
:FULLY-SPECIFIED
:DEGREES
512
root -1.45479 18.0072 -1.95071 8.51186 5.52907 2.76952
lowerback 10.5925 0.800405 -0.121701
upperback 3.17973 1.15365 2.99053
thorax -2.68936 0.572156 3.02905
lowerneck -25.3753 -3.77418 -9.71377
upperneck 9.72869 -3.20108 8.4094
head 7.3527 -1.08636 3.95674
rclavicle 1.23246e-014 -1.59028e-015
rhumerus -41.3627 0.804136 -77.815
rradius 31.0891
rwrist 17.85
rhand -20.994 0.0828564
rfingers 7.12502
rthumb 5.38019 -29.8288
lclavicle 1.23246e-014 -1.59028e-015
lhumerus -46.2581 6.61761 90.6577
lradius 35.5115
lwrist 0.634697
lhand -7.17132 25.4382
lfingers 7.12502
lthumb 18.706 54.5588
rfemur -17.4083 -0.446682 16.0585
rtibia 28.9011
rfoot -18.4991 -6.90921
rtoes 7.66905
lfemur -25.6655 -1.21948 -13.0613
ltibia 37.3794
lfoot -3.46176 4.87578
ltoes -15.3923
513
root -1.42424 18.0082 -1.99586 8.71462 5.53124 2.98646
lowerback 10.5798 0.751164 -0.338321
upperback 3.19351 1.0655 2.99165
thorax -2.66697 0.528453 3.16446
lowerneck -25.2419 -3.69061 -9.53782
upperneck 9.60842 -3.12447 8.22986
head 7.27784 -1.06276 3.87554
rclavicle 2.38542e-014 2.54444e-014
rhumerus -40.9887 0.452212 -77.5295
rradius 30.822
rwrist 17.6687
rhand -20.5253 0.000273895
rfingers 7.12502
rthumb 5.83263 -29.8994
lclavicle 2.38542e-014 2.54444e-014
lhumerus -45.976 6.25103 90.8852
lradius 35.7574
lwrist -0.713681
lhand -6.38976 25.2374
lfingers 7.12502
lthumb 19.4576 54.2838
rfemur -17.8005 -0.408377 15.6762
rtibia 28.9769
rfoot -18.3522 -6.97551
rtoes 7.75828
lfemur -25.5124 -1.15433 -13.1753
ltibia 37.4493
lfoot -3.67896 5.03473
ltoes -15.4476
514
root -1.39303 18.0128 -2.04096 8.89507 5.59669 3.08282
lowerback 10.5903 0.665551 -0.426152
upperback 3.21744 0.943659 3.01788
thorax -2.64244 0.467661 3.25738
lowerneck -25.175 -3.57792 -9.35149
upperneck 9.49138 -3.01211 8.08804
head 7.21224 -1.01645 3.81081
rclavicle 8.74653e-015 -1.27222e-014
rhumerus -40.5492 -0.0355557 -77.2369
rradius 30.6679
rwrist 17.4946
rhand -19.9935 -0.488841
rfingers 7.12502
rthumb 6.34606 -30.3738
lclavicle 8.74653e-015 -1.27222e-014
lhumerus -45.6823 5.93404 91.0373
lradius 36.0988
lwrist -1.889
lhand -5.73928 25.3235
lfingers 7.12502
lthumb 20.083 54.3055
rfemur -18.143 -0.402862 15.4374
rtibia 29.0249
rfoot -18.2224 -7.0766
rtoes 7.75497
lfemur -25.3265 -1.13682 -13.1502
ltibia 37.4124
lfoot -3.70731 5.20145
ltoes -14.0799
515
root -1.36021 18.0186 -2.0858 9.01843 5.6475 3.04045
lowerback 10.6515 0.567401 -0.379162
upperback 3.24007 0.820656 3.06639
thorax -2.64509 0.406296 3.29715
lowerneck -25.1816 -3.48418 -9.33112
upperneck 9.51319 -2.90671 8.16843
head 7.21257 -0.957374 3.84962
rclavicle -4.77083e-015 6.36111e-015
rhumerus -40.123 -0.346583 -77.069
rradius 30.4946
rwrist 17.1774
rhand -19.6122 -0.920043
rfingers 7.12502
rthumb 6.71418 -30.7936
lclavicle -4.77083e-015 6.36111e-015
lhumerus -45.3486 5.60138 91.151
lradius 36.3491
lwrist -2.88816
lhand -5.52669 25.4302
lfingers 7.12502
lthumb 20.2873 54.3907
rfemur -18.42 -0.326678 15.3421
rtibia 29.0249
rfoot -18.0578 -7.25762
rtoes 7.66867
lfemur -25.0824 -0.995447 -12.9984
ltibia 37.3136
lfoot -3.7603 5.30646
ltoes -12.8686
516
root -1.32677 18.0205 -2.12773 9.16868 5.69168 2.97239
lowerback 10.6962 0.491346 -0.314455
upperback 3.2044 0.730243 3.12202
thorax -2.70118 0.362016 3.33031
lowerneck -25.0606 -3.4462 -9.44106
upperneck 9.57099 -2.85455 8.29584
head 7.21267 -0.927231 3.91835
rclavicle -1.59028e-015 -1.59028e-015
rhumerus -39.8385 -0.633089 -76.9246
rradius 30.3206
rwrist 16.8866
rhand -19.5651 -1.21031
rfingers 7.12502
rthumb 6.7597 -31.0824
lclavicle -1.59028e-015 -1.59028e-015
lhumerus -45.1063 5.18688 91.2992
lradius 36.6649
lwrist -3.63878
lhand -5.60234 25.9707
lfingers 7.12502
lthumb 20.2146 54.9389
rfemur -18.7183 -0.29564 15.2715
rtibia 28.9825
rfoot -17.8764 -7.31131
rtoes 7.83684
lfemur -24.8479 -0.731562 -12.8397
ltibia 37.1625
lfoot -4.08165 5.37629
ltoes -14.2289
517
root -1.2911 18.0245 -2.16718 9.33346 5.79718 2.95312
lowerback 10.7588 0.408557 -0.263209
upperback 3.13571 0.630477 3.16789
thorax -2.80094 0.313779 3.36236
lowerneck -24.8264 -3.41946 -9.45313
upperneck 9.56352 -2.82787 8.24375
head 7.1704 -0.925024 3.90519
rclavicle 8.74653e-015 4.77083e-015
rhumerus -39.6499 -0.946447 -76.7798
rradius 30.2575
rwrist 16.6919
rhand -19.8858 -1.61814
rfingers 7.12502
rthumb 6.45005 -31.4999
lclavicle 8.74653e-015 4.77083e-015
lhumerus -44.9457 4.77042 91.4106
lradius 37.1516
lwrist -4.25424
lhand -5.5134 26.4817
lfingers 7.12502
lthumb 20.3001 55.4408
rfemur -18.9766 -0.256052 15.1465
rtibia 28.9235
rfoot -17.6884 -7.53494
rtoes 6.95917
lfemur -24.6092 -0.610087 -12.7264
ltibia 36.9198
lfoot -4.4054 5.50151
ltoes -15.49
518
root -1.25314 18.0268 -2.20593 9.53115 5.91025 2.96961
lowerback 10.7078 0.318571 -0.228511
upperback 3.12169 0.515298 3.18169
thorax -2.78029 0.256491 3.37211
lowerneck -24.688 -3.33541 -9.35875
upperneck 9.49099 -2.7426 8.1669
head 7.11417 -0.890492 3.87379
rclavicle 7.55382e-015 1.43125e-014
rhumerus -39.3527 -1.19886 -76.7212
rradius 30.2224
rwrist 16.4148
rhand -20.1369 -1.73601
rfingers 7.12502
rthumb 6.20768 -31.6251
lclavicle 7.55382e-015 1.43125e-014
lhumerus -44.6499 4.41155 91.4141
lradius 37.5635
lwrist -5.07554
lhand -5.0222 26.8105
lfingers 7.12502
lthumb 20.7721 55.7187
rfemur -19.2849 -0.279097 14.974
rtibia 28.8937
rfoot -17.524 -7.73645
rtoes 5.70828
lfemur -24.3853 -0.561882 -12.6607
ltibia 36.548
lfoot -4.49489 5.57199
ltoes -15.0482
519
root -1.21599 18.0272 -2.24475 9.72472 5.93686 3.03765
lowerback 10.6369 0.267928 -0.346771
upperback 3.13125 0.435746 3.21525
thorax -2.72749 0.216677 3.48447
lowerneck -24.6063 -3.24655 -9.27952
upperneck 9.51009 -2.63874 8.0515
head 7.09486 -0.850593 3.83536
rclavicle 3.57812e-015 -3.65764e-014
rhumerus -39.0667 -1.34959 -76.6745
rradius 30.3131
rwrist 15.9334
rhand -20.2439 -1.83857
rfingers 7.12502
rthumb 6.10435 -31.7306
lclavicle 3.57812e-015 -3.65764e-014
lhumerus -44.2746 4.16593 91.3818
lradius 37.7816
lwrist -5.95397
lhand -4.4759 27.2911
lfingers 7.12502
lthumb 21.2969 56.141
rfemur -19.6238 -0.310766 14.7386
rtibia 28.9003
rfoot -17.4327 -7.80221
rtoes 5.31854
lfemur -24.1139 -0.392365 -12.6672
ltibia 36.037
lfoot -4.51267 5.57638
ltoes -14.3352
520
root -1.17857 18.028 -2.28508 10.0084 5.83807 3.09152
lowerback 10.4806 0.269563 -0.498442
upperback 3.13832 0.420885 3.25037
thorax -2.6344 0.208499 3.60873
lowerneck -24.5631 -3.2165 -9.26446
upperneck 9.54954 -2.59684 7.97523
head 7.09562 -0.838435 3.81276
rclavicle 3.57812e-015 2.54444e-014
rhumerus -38.7159 -1.51184 -76.6561
rradius 30.3947
rwrist 15.382
rhand -20.5385 -2.31587
rfingers 7.12502
rthumb 5.8199 -32.2159
lclavicle 3.57812e-015 2.54444e-014
lhumerus -43.7941 4.00094 91.3306
lradius 37.8196
lwrist -6.89291
lhand -4.79532 27.1665
lfingers 7.12502
lthumb 20.9901 56.0507
rfemur -20.0925 -0.197487 14.4895
rtibia 28.9225
rfoot -17.1149 -7.93692
rtoes 4.2815
lfemur -23.9113 -0.198303 -12.6643
ltibia 35.4393
lfoot -4.67184 5.72497
ltoes -14.1192
521
root -1.13889 18.0296 -2.32546 10.3565 5.67658 3.12176
lowerback 10.2942 0.315286 -0.637751
upperback 3.10802 0.466756 3.29102
thorax -2.56765 0.23094 3.72421
lowerneck -24.5172 -3.20563 -9.24375
upperneck 9.56692 -2.57434 7.85357
head 7.08941 -0.839662 3.77097
rclavicle 0 -2.54444e-014
rhumerus -38.3443 -1.69069 -76.5817
rradius 30.4499
rwrist 14.9377
rhand -20.7359 -2.56367
rfingers 7.12502
rthumb 5.62938 -32.4689
lclavicle 0 -2.54444e-014
lhumerus -43.3168 3.81232 91.2806
lradius 37.8599
lwrist -7.68854
lhand -5.80423 26.4823
lfingers 7.12502
lthumb 20.0205 55.4709
rfemur -20.633 -0.0277594 14.2472
rtibia 28.9281
rfoot -16.7853 -8.08924
rtoes 2.97982
lfemur -23.7727 -0.0165764 -12.6554
ltibia 34.8092
lfoot -4.89064 5.95686
ltoes -14.1661
522
root -1.0958 18.0314 -2.36301 10.6371 5.65209 3.09001
lowerback 10.1712 0.313195 -0.659761
upperback 3.055 0.463512 3.34925
thorax -2.55541 0.229678 3.79796
lowerneck -24.497 -3.15341 -9.18899
upperneck 9.69216 -2.49959 7.66989
head 7.1167 -0.820601 3.71079
rclavicle 3.97569e-015 -3.02153e-014
rhumerus -38.0908 -1.90086 -76.4975
rradius 30.6359
rwrist 14.5229
rhand -20.8896 -2.47396
rfingers 7.12502
rthumb 5.4809 -32.3831
lclavicle 3.97569e-015 -3.02153e-014
lhumerus -42.8936 3.6557 91.1699
lradius 37.9293
lwrist -8.4711
lhand -5.95691 26.4834
lfingers 7.12502
lthumb 19.8738 55.4872
rfemur -21.0488 0.0209958 14.0847
rtibia 28.9147
rfoot -16.6752 -8.16013
rtoes 3.01572
lfemur -23.5801 0.105313 -12.5972
ltibia 34.1557
lfoot -4.93585 6.22692
ltoes -14.4759
